<!-- Generator: Adobe Illustrator 19.1.1, SVG Export Plug-In  -->
<svg version="1.1"
	 xmlns="http://www.w3.org/2000/svg" xmlns:xlink="http://www.w3.org/1999/xlink" xmlns:a="http://ns.adobe.com/AdobeSVGViewerExtensions/3.0/"
	 x="0px" y="0px" width="138.845px" height="141.328px" viewBox="0 0 138.845 141.328"
	 style="enable-background:new 0 0 138.845 141.328;" xml:space="preserve">
<style type="text/css">
	.st0{fill:#121028;}
	.st1{fill:#FFFFFF;}
	.st2{fill:#1F1A55;}
</style>
<defs>
</defs>
<g>
	<g>
		<g id="XMLID_2_">
			<g>
				<polygon class="st0" points="68.977,138.384 68.274,141.078 55.602,95.939 29.905,108.588 44.733,82.61 2.428,71.694 
					7.16,71.694 45.248,81.533 45.131,81.697 46.115,82.282 46.42,81.837 46.513,81.861 32.833,105.847 55.414,94.744 
					55.391,95.049 55.391,95.095 56.562,95.142 56.562,95.095 56.562,95.025 67.712,134.683 67.712,134.706 67.712,136.697 
					68.884,136.697 68.884,134.191 68.884,134.167 79.097,95.213 79.471,95.423 80.08,94.416 102.334,106.339 90.153,84.156 
					90.504,84.18 90.551,83.008 90.434,83.008 131.965,71.694 135.221,71.694 135.221,70.523 132.176,70.523 92.8,59.49 
					92.94,59.28 91.98,58.624 91.675,59.069 102.193,38.572 82.048,49.629 82.048,49.558 81.017,49.512 68.93,7.02 68.93,3.904 
					68.556,3.904 68.837,2.71 68.274,2.569 67.689,2.428 68.204,0.25 81.907,48.364 104.981,35.691 93.315,58.436 138.595,71.109 
					91.394,83.969 105.262,109.244 80.151,95.775 				"/>
				<polygon class="st0" points="135.221,70.523 135.221,71.694 131.965,71.694 134.191,71.085 132.176,70.523 				"/>
				<polygon class="st0" points="134.191,71.085 131.965,71.694 70.336,71.694 69.141,70.523 69.211,70.523 69.586,70.898 
					69.961,70.523 84.297,70.523 84.953,70.968 85.257,70.523 132.176,70.523 				"/>
				<polygon class="st1" points="132.176,70.523 85.257,70.523 92.8,59.49 				"/>
				<polygon class="st2" points="131.965,71.694 90.434,83.008 81.392,82.634 70.336,71.694 				"/>
				<polygon class="st1" points="90.153,84.156 102.334,106.339 80.08,94.416 79.893,94.299 68.93,87.81 68.954,71.952 80.9,83.781 
									"/>
				<polygon class="st1" points="102.193,38.572 91.675,59.069 91.629,59.162 83.992,70.312 84.297,70.523 69.961,70.523 
					81.65,58.647 82.048,49.629 				"/>
				<polygon class="st0" points="92.94,59.28 92.8,59.49 91.629,59.162 91.675,59.069 91.98,58.624 				"/>
				<polygon class="st0" points="92.8,59.49 85.257,70.523 84.297,70.523 83.992,70.312 91.629,59.162 				"/>
				<polygon class="st0" points="90.551,83.008 90.504,84.18 90.153,84.156 89.638,83.219 90.434,83.008 				"/>
				<polygon class="st0" points="90.434,83.008 89.638,83.219 90.153,84.156 80.9,83.781 68.954,71.952 68.954,71.694 
					70.336,71.694 81.392,82.634 				"/>
				<polygon class="st0" points="85.257,70.523 84.953,70.968 84.297,70.523 				"/>
				<polygon class="st0" points="82.048,49.558 82.048,49.629 81.181,50.097 81.017,49.512 				"/>
				<polygon class="st0" points="82.048,49.629 81.65,58.647 69.961,70.523 69.211,70.523 68.954,70.289 68.954,69.867 
					80.502,58.155 80.877,49.512 81.017,49.512 81.181,50.097 				"/>
				<polygon class="st2" points="68.93,7.02 81.017,49.512 80.877,49.512 80.502,58.155 68.954,69.867 				"/>
				<polygon class="st0" points="79.893,94.299 80.08,94.416 79.471,95.423 79.097,95.213 79.401,94.041 				"/>
				<polygon class="st0" points="79.893,94.299 79.401,94.041 79.097,95.213 68.93,89.146 68.93,87.81 				"/>
				<polygon class="st1" points="68.93,89.146 79.097,95.213 68.884,134.167 				"/>
				<polygon class="st0" points="70.336,71.694 68.954,71.694 68.954,71.226 69.094,71.062 68.954,70.945 68.954,70.547 
					68.954,70.523 69.141,70.523 				"/>
				<polygon class="st0" points="69.961,70.523 69.586,70.898 69.211,70.523 				"/>
				<polygon class="st0" points="68.954,70.336 69.141,70.523 68.954,70.523 				"/>
				<polygon class="st0" points="69.094,71.062 68.954,71.226 68.954,70.945 				"/>
				<polygon class="st0" points="68.954,70.289 68.907,70.242 68.907,69.914 68.954,69.867 				"/>
				<polygon class="st0" points="68.907,70.242 68.954,70.289 68.954,70.336 68.907,70.289 				"/>
				<polygon class="st0" points="68.907,70.289 68.954,70.336 68.954,70.523 68.907,70.523 				"/>
				<rect x="68.907" y="70.523" class="st0" width="0.047" height="0.023"/>
				<polygon class="st0" points="68.954,70.547 68.954,70.945 68.907,70.898 68.907,70.547 				"/>
				<polygon class="st0" points="68.93,7.02 68.954,69.867 68.907,69.914 				"/>
				<polygon class="st0" points="68.907,70.898 68.954,70.945 68.954,71.226 68.907,71.273 				"/>
				<polygon class="st0" points="68.954,71.226 68.954,71.694 68.907,71.694 68.907,71.273 				"/>
				<polygon class="st0" points="68.954,71.694 68.954,71.952 68.907,71.905 68.907,71.694 				"/>
				<polygon class="st0" points="68.954,71.952 68.93,87.81 68.907,87.787 68.907,71.905 				"/>
				<polygon class="st0" points="68.907,87.787 68.93,87.81 68.93,89.146 68.907,89.146 				"/>
				<polygon class="st0" points="68.93,89.146 68.884,134.167 68.907,89.146 				"/>
				<polygon class="st0" points="68.93,3.904 68.93,7.02 68.321,4.865 68.556,3.904 				"/>
				<polygon class="st0" points="68.321,4.865 68.93,7.02 68.907,69.914 68.743,70.078 68.907,70.242 68.907,70.289 68.673,70.055 
					68.321,70.406 67.783,69.914 67.783,57.429 68.274,56.773 67.783,56.398 67.759,7.23 				"/>
				<polygon class="st0" points="68.907,69.914 68.907,70.242 68.743,70.078 				"/>
				<polygon class="st0" points="68.907,70.289 68.907,70.523 68.485,70.523 68.321,70.406 68.673,70.055 				"/>
				<polygon class="st0" points="68.907,70.523 68.907,70.547 68.509,70.547 68.485,70.523 				"/>
				<polygon class="st0" points="68.907,70.547 68.907,70.898 68.509,70.547 				"/>
				<polygon class="st0" points="68.907,70.898 68.907,71.273 68.602,71.601 67.853,70.875 68.181,70.547 68.368,70.547 
					68.509,70.547 				"/>
				<polygon class="st0" points="68.907,71.273 68.907,71.694 68.673,71.694 68.602,71.601 				"/>
				<polygon class="st0" points="68.907,71.694 68.907,71.905 68.673,71.694 				"/>
				<polygon class="st0" points="68.907,71.905 68.907,87.787 68.556,87.576 67.97,88.583 68.907,89.146 68.884,134.167 
					68.884,134.191 68.251,136.603 67.712,134.706 67.712,134.683 67.783,72.491 68.509,71.694 68.673,71.694 				"/>
				<polygon class="st0" points="68.907,87.787 68.907,89.146 67.97,88.583 68.556,87.576 				"/>
				<polygon class="st0" points="68.884,134.191 68.884,136.697 67.712,136.697 67.712,134.706 68.251,136.603 				"/>
				<polygon class="st0" points="68.837,2.71 68.556,3.904 68.04,3.904 67.712,2.733 68.274,2.569 				"/>
				<polygon class="st0" points="68.602,71.601 68.673,71.694 68.509,71.694 				"/>
				<polygon class="st0" points="68.602,71.601 68.509,71.694 67.783,71.694 67.783,70.547 68.181,70.547 67.853,70.875 				"/>
				<polygon class="st0" points="68.556,3.904 68.321,4.865 68.04,3.904 				"/>
				<polygon class="st0" points="68.509,71.694 67.783,72.491 67.783,71.694 				"/>
				<polygon class="st0" points="68.509,70.547 68.368,70.547 68.181,70.547 68.204,70.523 68.485,70.523 				"/>
				<polygon class="st0" points="68.485,70.523 68.204,70.523 68.321,70.406 				"/>
				<polygon class="st0" points="67.783,69.914 68.321,70.406 68.204,70.523 67.783,70.523 				"/>
				<polygon class="st0" points="68.04,3.904 68.321,4.865 67.759,7.23 67.759,3.904 				"/>
				<polygon class="st0" points="68.274,56.773 67.783,57.429 67.783,56.398 				"/>
				<polygon class="st0" points="68.274,2.569 67.712,2.733 68.04,3.904 67.759,3.904 67.759,7.23 57.804,48.996 57.476,48.762 
					56.797,49.699 33.419,38.315 44.991,58.389 44.616,58.413 44.663,59.584 6.575,70.523 2.405,70.523 43.773,58.647 
					30.491,35.574 56.726,48.387 67.689,2.428 				"/>
				<polygon class="st0" points="68.204,70.523 68.181,70.547 67.783,70.547 67.783,70.523 				"/>
				<polygon class="st0" points="67.783,70.523 67.783,70.547 67.783,71.694 67.736,71.694 67.736,70.523 				"/>
				<polygon class="st0" points="67.783,72.491 67.736,72.538 67.736,71.694 67.783,71.694 				"/>
				<polygon class="st0" points="67.736,72.538 67.783,72.491 67.712,134.683 				"/>
				<polygon class="st0" points="67.783,69.914 67.783,70.523 67.736,70.523 67.736,69.867 				"/>
				<polygon class="st0" points="67.783,57.429 67.783,69.914 67.736,69.867 67.736,57.476 				"/>
				<polygon class="st0" points="67.783,56.398 67.783,57.429 67.736,57.476 67.736,56.375 				"/>
				<polygon class="st0" points="67.759,7.23 67.783,56.398 67.736,56.375 				"/>
				<polygon class="st1" points="57.804,48.996 67.759,7.23 67.736,56.375 				"/>
				<polygon class="st0" points="67.736,57.476 67.572,57.71 56.843,49.722 57.546,50.074 57.804,48.996 67.736,56.375 				"/>
				<polygon class="st1" points="67.572,57.71 67.736,57.476 67.736,69.867 54.126,58.015 44.991,58.389 33.419,38.315 
					56.797,49.699 56.843,49.722 				"/>
				<polygon class="st0" points="67.736,69.867 67.736,70.523 66.705,70.523 53.704,59.209 44.733,59.584 45.529,59.35 
					44.991,58.389 54.126,58.015 				"/>
				<polygon class="st0" points="67.736,72.538 57.031,84.226 56.562,95.025 56.351,94.276 55.414,94.744 55.883,83.735 
					66.939,71.694 67.736,71.694 				"/>
				<polygon class="st2" points="57.031,84.226 67.736,72.538 67.712,134.683 56.562,95.025 				"/>
				<polygon class="st0" points="67.736,70.523 67.736,71.694 66.939,71.694 67.431,71.156 66.705,70.523 				"/>
				<polygon class="st0" points="67.431,71.156 66.939,71.694 53.259,71.694 53.541,71.273 52.557,70.664 51.854,71.694 
					7.16,71.694 4.701,71.062 6.575,70.523 66.705,70.523 				"/>
				<polygon class="st1" points="66.939,71.694 55.883,83.735 55.414,94.744 32.833,105.847 46.513,81.861 46.42,81.837 
					53.259,71.694 				"/>
				<polygon class="st2" points="66.705,70.523 6.575,70.523 44.663,59.584 44.733,59.584 53.704,59.209 				"/>
				<polygon class="st0" points="57.804,48.996 57.546,50.074 56.843,49.722 56.797,49.699 57.476,48.762 				"/>
				<polygon class="st0" points="56.562,95.025 56.562,95.095 56.562,95.142 55.391,95.095 55.391,95.049 55.414,94.744 
					56.351,94.276 				"/>
				<polygon class="st0" points="53.541,71.273 53.259,71.694 51.854,71.694 52.557,70.664 				"/>
				<polygon class="st0" points="53.259,71.694 46.42,81.837 45.248,81.533 51.854,71.694 				"/>
				<polygon class="st1" points="51.854,71.694 45.248,81.533 7.16,71.694 				"/>
				<polygon class="st0" points="46.42,81.837 46.115,82.282 45.131,81.697 45.248,81.533 				"/>
				<polygon class="st0" points="44.991,58.389 45.529,59.35 44.733,59.584 44.663,59.584 44.616,58.413 				"/>
				<polygon class="st0" points="7.16,71.694 2.428,71.694 2.405,71.694 2.405,70.523 6.575,70.523 4.701,71.062 				"/>
				<polygon class="st0" points="2.405,70.523 2.405,71.694 0.25,71.132 				"/>
			</g>
			<g>
			</g>
		</g>
	</g>
	<g>
	</g>
</g>
</svg>